<svg width="22" height="10" viewBox="0 0 22 10" fill="none" xmlns="http://www.w3.org/2000/svg">
<path fill-rule="evenodd" clip-rule="evenodd" d="M16.4185 2.75089L18.9879 4.85157L16.4185 7.08939V9.7129L17.7924 8.51685L21.9998 4.85157L17.7924 1.41043L16.4185 0.287109V2.75089Z" fill="url(#paint0_linear_5114_46751)"/>
<path fill-rule="evenodd" clip-rule="evenodd" d="M0 3.65427V6.34713C0 8.51534 0.943072 9.84801 3.70372 9.84801C4.64575 9.84801 5.58857 9.51036 6.04595 9.09479V9.71347H7.87651V4.42151H4.22785V6.10429H5.85713V7.42448C5.25995 7.75052 4.58566 7.90884 3.90579 7.88264C2.42326 7.88264 2.18197 7.12813 2.18197 6.17259V3.82855C2.18197 2.87275 2.42326 2.11902 4.10734 2.11902C5.12369 2.10472 6.12624 2.35536 7.01629 2.84626L7.83833 1.02816C6.74643 0.421957 5.85713 0.1521 4.14656 0.1521C0.930086 0.1521 0 1.48528 0 3.65427Z" fill="white"/>
<path fill-rule="evenodd" clip-rule="evenodd" d="M8.63379 9.71354V0.287231H12.5791C14.8678 0.287231 15.7698 1.44484 15.7698 3.46526V3.49331C15.7698 5.51296 14.8678 6.67135 12.5791 6.67135H10.8288V9.71354H8.63379ZM12.3093 2.13163H10.8288L10.8286 4.85332H12.309C13.2129 4.85332 13.5089 4.44866 13.5089 3.49234C13.5089 2.53603 13.2131 2.13163 12.3093 2.13163Z" fill="white"/>
<defs>
<linearGradient id="paint0_linear_5114_46751" x1="22.0546" y1="9.64831" x2="22.0546" y2="0.0373626" gradientUnits="userSpaceOnUse">
<stop stop-color="#3076F9"/>
<stop offset="1" stop-color="#00D3D3"/>
</linearGradient>
</defs>
</svg>
