<svg width="500" height="112" viewBox="0 0 500 112" fill="none" xmlns="http://www.w3.org/2000/svg">
<path fill-rule="evenodd" clip-rule="evenodd" d="M155.713 49.2553C154.719 49.2553 154.388 48.5925 154.719 47.5983L155.95 44.7103C157.086 41.633 155.287 39.7865 152.778 39.2184C156.566 37.9401 159.311 35.4309 161.158 30.3177L163.241 24.3997C165.703 17.4402 163.052 13.2266 156.139 13.2266H107.564L104.014 23.0741H139.427C141.415 23.0741 142.173 24.3997 141.463 26.3409L139.569 31.596C138.859 33.5371 137.107 34.8628 135.119 34.8628H128.775L125.413 44.0475H132.42C134.077 44.0475 134.693 44.9944 134.124 46.6514L132.42 51.2438C130.905 55.5048 133.272 59.1029 137.533 59.1029H153.204L156.755 49.2553H155.713ZM116.466 59.1033L128.349 26.2939H107.376L95.4922 59.1033H116.466ZM188.902 32.873L188.886 32.9204H168.639L159.123 59.149H203.058L207.793 46.0347H192.027L190.844 49.3014H182.984L184.878 44.0462H199.223L202.585 34.8615H188.192L188.886 32.9204H188.902V32.873ZM212.527 32.8262L217.309 19.7119H169.397L165.799 29.5595H197.945L196.762 32.8262H212.527ZM210.869 59.1016L220.385 32.873H240.743L231.227 59.1016H210.869ZM238.234 49.2544L234.683 59.1019H250.97C257.503 59.1019 262.663 55.2671 265.031 48.7809L271.848 30.0327C274.215 23.4992 271.754 19.7117 265.267 19.7117H221.19L217.592 29.5593H249.076C250.733 29.5593 251.301 30.5535 250.733 32.2579L245.572 46.5558C245.004 48.2602 243.631 49.2544 241.974 49.2544H238.234Z" fill="#D50A0A"/>
<path fill-rule="evenodd" clip-rule="evenodd" d="M275.969 29.5607L281.934 13.1797H337.705L334.155 23.0272H294.48L292.066 29.6081H275.969V29.5607ZM330.415 26.2939L297.795 49.2558H309.157L311.525 42.675H327.622L321.704 59.1033H265.27L268.82 49.2558L301.44 26.2939H330.415ZM388.032 30.0328C390.352 23.4993 387.938 19.7118 381.451 19.7118H350.204C343.718 19.7118 338.463 23.6413 336.285 29.5593H365.212C366.869 29.5593 367.485 30.5536 366.869 32.258L361.709 46.5558C361.046 48.3549 359.768 49.2545 358.111 49.2545H352.145C350.488 49.2545 349.92 48.2602 350.488 46.5558L355.46 32.8261H335.102L329.326 48.781C326.958 55.3145 329.42 59.102 335.906 59.102H367.154C373.687 59.102 378.848 55.2671 381.215 48.781L388.032 30.0328ZM400.342 32.873L403.467 46.9816L399.064 59.1016H385.287L394.803 32.873H400.342ZM427.801 37.7026L423.872 19.7119H395.655L392.057 29.5595H402.993L409.574 59.1021H433.861L448.159 19.7119H434.382L427.801 37.7026ZM471.595 32.873L471.578 32.9204H451.237L441.721 59.149H485.703L490.438 46.0347H474.672L473.489 49.3014H465.629L467.523 44.0462H481.868L485.23 34.8615H470.885L471.578 32.9204H471.595V32.873ZM495.219 32.8262L500.001 19.7119H452.088L448.49 29.5595H480.637L479.453 32.8262H495.219Z" fill="#013369"/>
<path fill-rule="evenodd" clip-rule="evenodd" d="M134.883 69.375H144.541V71.9316H137.913V75.1036H143.689V77.4708H137.913V83.1521H134.883V69.375ZM146.008 73.162H148.612V75.0084H148.659C149.18 73.7775 150.505 72.8779 151.831 72.8779C152.021 72.8779 152.257 72.9253 152.447 72.9726V75.5292C152.21 75.4818 151.784 75.4345 151.452 75.4345C149.464 75.4345 148.754 76.9022 148.754 78.6539V83.1516H146.008V73.162ZM163.147 78.18C163.147 75.0079 161.111 72.9248 157.987 72.9248C154.862 72.9248 152.874 75.0079 152.826 78.18C152.826 81.352 154.862 83.4352 157.987 83.4352C161.111 83.4352 163.147 81.352 163.147 78.18ZM157.987 81.3534C159.833 81.3534 160.401 79.7437 160.401 78.1813C160.401 76.5716 159.833 74.9619 157.987 74.9619C156.14 74.9619 155.572 76.5716 155.572 78.1813C155.572 79.7437 156.14 81.3534 157.987 81.3534ZM167.598 73.162H164.994V83.1516H167.693V77.3756C167.693 75.4345 169.018 75.1031 169.539 75.1031C171.206 75.1031 171.201 76.3032 171.197 77.3984C171.196 77.4542 171.196 77.5098 171.196 77.565V83.1516H173.942V77.565C173.942 76.334 174.226 75.0558 175.789 75.0558C177.351 75.0558 177.446 76.1447 177.446 77.4703V83.1516H180.192V76.4287C180.192 73.8722 178.677 72.8779 176.546 72.8779C175.173 72.8779 174.132 73.6828 173.563 74.535C173.043 73.3514 171.906 72.8779 170.675 72.8779C169.397 72.8779 168.356 73.4461 167.645 74.4876H167.598V73.162Z" fill="#013369"/>
<path fill-rule="evenodd" clip-rule="evenodd" d="M482.247 72.7378L483.904 68.0981V68.0508H474.53L464.256 78.7505L466.907 89.7817H476.66L478.317 85.142H476.802L475.24 78.4665L480.732 72.7378H482.247ZM467.569 68.0977L459.663 89.8286H449.721L455.923 72.7374H453.792L455.449 68.0977H467.569ZM447.685 84.4323C447.543 84.9058 447.685 85.1898 448.159 85.1898H448.68L447.023 89.8295H439.59C437.554 89.8295 436.465 88.1251 437.175 86.0894L437.98 83.9115C438.264 83.154 437.932 82.6806 437.175 82.6806H432.204L429.647 89.8295H419.705L425.907 72.7383H423.729L425.386 68.0986H448.348C451.615 68.0986 452.893 70.1344 451.757 73.4012L450.715 76.2418C449.863 78.6563 448.585 79.7926 446.786 80.4554C447.969 80.7395 448.822 81.5917 448.301 83.0593L447.685 84.4323ZM243.253 68.0996L240.413 75.864H232.79L233.927 72.7393H230.66L228.719 78.0419H236.199L234.495 82.6816H227.014L224.458 89.8305H214.516L220.718 72.7393H218.54L220.197 68.0996H243.253ZM185.021 89.8774L191.224 72.7862H189.093L190.75 68.1465H204.575L207.084 79.6511L211.25 68.1465H218.73L210.824 89.8774H199.177L196.668 78.3728L192.502 89.8774H185.021ZM250.736 85.1908L256.938 68.0996H244.771L243.114 72.7393H245.339L239.137 89.8305H259.968L262.761 82.0661H255.139L254.003 85.1908H250.736ZM271.424 89.8774L277.626 72.7862H275.495L277.152 68.1465H290.977L293.486 79.6511L297.652 68.1465H305.133L297.226 89.8774H285.58L283.07 78.3728L278.904 89.8774H271.424ZM326.817 75.864L329.657 68.0996H306.648L304.991 72.7393H307.169L300.967 89.8305H321.798L324.592 82.0661H316.969L315.833 85.1908H312.566L314.129 80.8351H321.562L322.935 77.095H315.454L317.017 72.7393H320.331L319.194 75.864H326.817ZM329.8 89.8774L336.002 72.7862H329.516L331.173 68.1465H354.182L352.525 72.7862H345.944L339.742 89.8774H329.8ZM380.932 77.7104V68.0996H373.641L366.681 77.7104V68.0996H355.792L354.088 72.7393H355.934V89.8305H365.971L370.99 82.8709V89.8305H380.506L396.461 68.0996H387.892L380.932 77.7104ZM417.812 84.5753C416.628 87.8421 413.882 89.8779 410.615 89.8779H394.755C391.488 89.8779 390.21 87.8421 391.346 84.5753L395.418 73.4021C396.601 70.1354 399.347 68.0996 402.614 68.0996H418.474C421.741 68.0996 423.019 70.1354 421.883 73.4021L417.812 84.5753ZM408.249 83.6284C407.87 84.5753 407.065 85.1907 406.119 85.1907H402.71C401.763 85.1907 401.384 84.5753 401.716 83.6284L405.124 74.3016C405.503 73.3547 406.308 72.7393 407.255 72.7393H410.664C411.61 72.7393 411.989 73.3547 411.658 74.3016L408.249 83.6284ZM433.719 78.3717L435.755 72.7852H440.394C441.341 72.7852 441.72 73.4006 441.388 74.3475L440.489 76.8094C440.11 77.7563 439.305 78.3717 438.358 78.3717H433.719Z" fill="#013369"/>
<path d="M77.8335 13.3196C74.3774 15.7815 67.7493 19.1903 59.2273 17.1071C44.5034 13.4616 40.2424 0.773438 40.2424 0.773438C40.2424 0.773438 36.0288 13.509 21.2575 17.1071C12.7355 19.1903 6.15472 15.8288 2.65126 13.3196H0V81.8264C0 83.5308 0.426096 86.9869 3.21939 90.3956C6.6755 94.6093 12.5462 97.3552 20.7367 98.4915C27.2228 99.4383 32.0045 101.474 35.366 104.694C37.8279 107.108 40.1951 111.227 40.1951 111.227C40.1951 111.227 42.6569 107.013 45.0241 104.694C48.3856 101.427 53.2147 99.391 59.6534 98.4915C67.7966 97.3079 73.6673 94.5619 77.1707 90.3956C80.0114 86.9869 80.3901 83.5781 80.3901 81.8264V13.3196H77.8335Z" fill="white"/>
<path d="M78.0708 15.9721C78.0708 15.9721 69.975 22.2688 58.6598 19.4282C45.4034 16.1141 40.2903 6.17188 40.2903 6.17188C40.2903 6.17188 35.1298 16.1141 21.9208 19.4282C10.5582 22.2688 2.50977 15.9721 2.50977 15.9721V81.7802C2.50977 84.0054 3.45665 93.5216 21.1633 96.0781C28.1702 97.0724 33.3781 99.3449 37.1656 102.943C38.4912 104.269 39.5328 105.547 40.3376 106.778C41.1425 105.594 42.1367 104.221 43.5097 102.943C47.2498 99.3449 52.4577 97.0724 59.5119 96.0781C77.2659 93.5216 78.1655 84.0054 78.1655 81.7802V15.9721H78.0708Z" fill="#013369"/>
<path d="M40.2908 100.148C40.2908 100.148 45.4513 93.8038 58.8023 91.7681C74.0944 89.4008 73.6683 82.2046 73.6683 81.8732V47.3594H6.9133V81.8258C6.9133 82.2046 6.4872 89.4009 21.7793 91.7207C35.1303 93.7565 40.2908 100.148 40.2908 100.148Z" fill="white"/>
<path fill-rule="evenodd" clip-rule="evenodd" d="M24.7606 72.5448V56.1638L22.6775 54.9802V50.7192H32.0043V54.9802L30.0632 56.1638V89.5886L25.0447 88.0736L17.8011 66.6741V80.7827L20.1209 82.5344V86.8427L10.084 84.2861V80.5933L12.4038 79.6937V56.0691L10.084 54.9328V50.6719H17.659L24.7606 72.5448ZM41.9463 87.5047L43.9347 89.9192V94.1802L33.9451 90.4873V86.8892L36.1229 85.9896V56.1629L33.9451 55.074V50.7657H51.2257V59.4297H47.3908L46.2072 55.8789H41.8989V65.8684H45.213L46.5386 63.9747H49.1899V72.828H46.5386L45.3077 71.0289H41.8989V87.5047H41.9463ZM52.9785 84.7591V89.02L70.5905 84.2856V73.3492H66.5189L65.7141 79.8827L61.4057 81.0663V56.116L63.3469 55.0271V50.7188H53.3573V55.0271L55.4404 56.116V82.7233L52.9785 84.7591Z" fill="#D50A0A"/>
<path fill-rule="evenodd" clip-rule="evenodd" d="M8.66283 28.4713L5.63281 26.1988H9.32564L10.5092 22.6953L11.6928 26.1988H15.3857L12.3557 28.4713L13.4446 32.0221L10.4619 29.9389L7.47923 32.0221L8.66283 28.4713ZM5.63281 37.9878L8.66283 40.2603L7.47923 43.8111L10.4619 41.728L13.4446 43.8111L12.3557 40.2603L15.3857 37.9878H11.6928L10.5092 34.4844L9.32564 37.9878H5.63281ZM18.6992 37.9878L21.7292 40.2603L20.5456 43.8111L23.5283 41.728L26.511 43.8111L25.4221 40.2603L28.4521 37.9878H24.7593L23.5757 34.4844L22.3921 37.9878H18.6992ZM18.6992 26.1988L21.7292 28.4713L20.593 32.0221L23.5283 29.9389L26.511 32.0221L25.4221 28.4713L28.4521 26.1988H24.7593L23.5757 22.6953L22.3921 26.1988H18.6992ZM73.0022 43.858L70.0195 41.7749L67.0368 43.858L68.1257 40.3072L65.0957 38.0347H68.7885L69.9721 34.5312L71.1557 38.0347H74.8486L71.8186 40.3072L73.0022 43.858ZM56.9531 41.7749L59.9357 43.858L58.7521 40.3072L61.7822 38.0347H58.0893L56.9057 34.5312L55.7221 38.0347H52.0293L55.0593 40.3072L53.9704 43.858L56.9531 41.7749ZM73.0022 32.0221L70.0195 29.9389L67.0368 32.0221L68.1257 28.4713L65.0957 26.1988H68.7885L69.9721 22.6953L71.1557 26.1988H74.8486L71.8186 28.4713L73.0022 32.0221ZM56.9531 29.9389L59.9357 32.0221L58.7521 28.4713L61.7822 26.1988H58.0893L56.9057 22.6953L55.7221 26.1988H52.0293L55.0593 28.4713L53.9704 32.0221L56.9531 29.9389Z" fill="white"/>
<path fill-rule="evenodd" clip-rule="evenodd" d="M44.8348 21.9375C47.0126 19.807 48.575 19.0022 48.575 19.0022C48.8785 18.9588 49.0629 19.2728 49.2009 19.5078C49.2136 19.5294 49.2259 19.5504 49.2378 19.5703C50.5634 22.8844 50.8948 26.9086 49.9006 30.7435C48.3856 36.6141 43.4145 42.0114 32.8094 43.3843C32.5727 43.3843 32.2887 43.337 32.2413 43.195C32.7147 40.9698 33.9457 36.7088 36.5023 32.2111C36.9757 32.4952 37.4965 32.8266 37.9226 33.158C38.112 32.874 38.3013 32.5899 38.6328 32.0691C37.3545 31.0275 35.8395 30.3174 34.1351 29.986L33.5669 31.1222C33.5669 31.1222 34.1824 31.2643 34.9873 31.5483C32.6674 36.4721 31.8626 40.9698 31.6732 43.0529C31.0577 42.0114 30.5369 39.6441 30.3475 38.3185C28.6432 25.9144 37.5438 18.7181 47.2494 18.5761C47.9122 18.5287 48.1489 18.6708 48.1489 18.6708C48.1489 18.6708 46.0184 19.4756 43.5565 21.3694C43.5565 21.3694 42.9884 21.1326 42.3729 20.9433C41.9942 21.18 41.5681 21.4641 41.1893 21.7481C42.3729 22.0322 43.8406 22.6003 45.2609 23.7839C45.3975 23.6474 45.545 23.5108 45.6981 23.369L45.6982 23.369C45.8636 23.2158 46.0357 23.0565 46.2078 22.8844C45.8764 22.6003 45.3083 22.2216 44.8348 21.9375ZM34.8457 28.4707C36.4554 28.8021 38.0651 29.5123 39.4381 30.6485C39.6748 30.3171 39.9589 29.891 40.1956 29.4649C39.1067 28.5654 37.5443 27.6659 35.6032 27.2871C35.3191 27.6659 34.8457 28.4707 34.8457 28.4707ZM41.19 28.234C39.9117 27.1451 38.3494 26.3402 36.5977 26.0088C36.7244 25.861 36.8512 25.7037 36.9821 25.5411L36.9821 25.5411C37.1447 25.3394 37.3137 25.1297 37.4972 24.9199C38.8228 25.1566 40.5746 25.8668 42.0896 27.0977C41.9463 27.2819 41.8119 27.4484 41.6825 27.6087L41.6825 27.6087C41.5126 27.8192 41.3513 28.019 41.19 28.234ZM38.7266 23.7359C40.3363 24.1147 41.8513 24.8249 43.1769 25.9138C43.461 25.535 43.745 25.251 44.1238 24.9195C43.1769 24.162 41.8513 23.2625 39.8628 22.7891C39.5314 23.0258 39.1053 23.3572 38.7266 23.7359Z" fill="white"/>
</svg>
